# xmcd CD database file
#
# Track frame offsets:
#	150
#	4852
#	23547
#	44760
#	61750
#	81735
#	104380
#	124382
#	140532
#	161857
#	183042
#	201787
#
# Disc length: 3004 seconds
#
# Revision: 5
# Processed by: cddbd v1.5PL3 Copyright (c) Steve Scherf et al.
# Submitted via: CDex 1.51
#
DISCID=a60bba0c
DTITLE=Mikuni Shimokawa - 392 -mikuni shimokawa BEST SELLECTION-
DYEAR=2002
DGENRE=New Age
TTITLE0=Party -is not over- (overture)
TTITLE1=POPCORN
TTITLE2=KANARIA
TTITLE3=Pavement
TTITLE4=TRUE -album version-
TTITLE5=TATTA HITOTSUNO -album mix-
TTITLE6=KARENAI HANA
TTITLE7=tomorrow
TTITLE8=Alone
TTITLE9=BELIEVER -TABIDACHINO UTA- (Studio live version)
TTITLE10=HAJIMARI(Cover version)
TTITLE11=If -moshimo negaiga kanaunara-(CMJK remix)
EXTD=YEAR: 2002
EXTT0=
EXTT1=
EXTT2=
EXTT3=
EXTT4=
EXTT5=
EXTT6=
EXTT7=
EXTT8=
EXTT9=
EXTT10=
EXTT11=
PLAYORDER=
